# xmcd CD database file
#
# Track frame offsets:
#	150
#	13087
#	31797
#	43005
#	54866
#	68246
#	79295
#	93048
#	110153
#	120252
#	136747
#	148456
#	163719
#	176807
#	190607
#	200432
#	218254
#	228220
#	239742
#	252417
#	263817
#	275461
#	290086
#	305565
#
# Disc length: 4233 seconds
#
# Revision: 0
# Processed by: cddbd v1.5.2PL0 Copyright (c) Steve Scherf et al.
# Submitted via: CDex 1.83
#
DISCID=5a108718
DTITLE=Nina Simone - Sings Ellington! The Amazing Nina Simone
DYEAR=1962
DGENRE=Jazz
TTITLE0=Do Nothing Till You Hear From Me
TTITLE1=I Got It Bad (And That Ain't Good)
TTITLE2=Hey, Buddy Bolden
TTITLE3=Merry Mending
TTITLE4=Something To Live For
TTITLE5=You Better Know It
TTITLE6=I Like The Sunrise
TTITLE7=Solitude
TTITLE8=The Gal From Joe's
TTITLE9=Satin Doll
TTITLE10=It Don't Mean A Thing (If It Ain't Got That Swing)
TTITLE11=Blue Prelude
TTITLE12=Children, Go Where I Send You
TTITLE13=Tomorrow (We Will Meet Once More)
TTITLE14=Stompin' At The Savoy
TTITLE15=It Might As Well Be Spring
TTITLE16=You've Been Gone Too Long
TTITLE17=That's Him Over There
TTITLE18=Chilly Winds Don't Blow
TTITLE19=Theme From "The Middle Of The Night"
TTITLE20=Can't Get Out Of This Mood
TTITLE21=Willow, Weep For Me
TTITLE22=Solitaire
TTITLE23=Nobody Knows You When You're Down and Out
EXTD=YEAR: 1962
EXTT0=
EXTT1=
EXTT2=
EXTT3=
EXTT4=
EXTT5=
EXTT6=
EXTT7=
EXTT8=
EXTT9=
EXTT10=
EXTT11=
EXTT12=
EXTT13=
EXTT14=
EXTT15=
EXTT16=
EXTT17=
EXTT18=
EXTT19=
EXTT20=
EXTT21=
EXTT22=
EXTT23=
PLAYORDER=
